# xmcd
#
# Track frame offsets:
#	150
#	20762
#	41582
#	64445
#
# Disc length: 1164 seconds
#
# Revision: 7
# Processed by: cddbd v1.5.2PL0 Copyright (c) Steve Scherf et al.
# Submitted via: audiograbber 1.83.01
#
DISCID=35048a04
DTITLE=Madonna - (Maxi) Secret
DYEAR=1994
DGENRE=Pop
TTITLE0=Secret [Edit]
TTITLE1=Let Down Your Guard [Rough Mix Edit]
TTITLE2=Secret [Instrumental]
TTITLE3=Secret [LP Version]
EXTD=
EXTT0=
EXTT1=
EXTT2=
EXTT3=
PLAYORDER=
